<svg xmlns="http://www.w3.org/2000/svg" width="453.408" height="63.063" viewBox="0 0 453.408 63.063">
  <g id="Grupo_6796" data-name="Grupo 6796" transform="translate(0 0)">
    <path id="Trazado_3887" data-name="Trazado 3887" d="M16.632-47.509q0-2.541.847-3.426t3.234-.886h.077v-.616H19.1q-.847,0-2.695.116t-3.08.116q-1.232,0-3.042-.116t-2.734-.116H5.852v.616h.154q2.387,0,3.234.886t.847,3.426v45.2a12.994,12.994,0,0,1-.924,5.737A3.282,3.282,0,0,1,6.006,5.159,10.757,10.757,0,0,1,2.272,4,10.81,10.81,0,0,0-1.386,2.849a2.68,2.68,0,0,0-2.041.77,2.685,2.685,0,0,0-.731,1.925,2.463,2.463,0,0,0,.847,1.964A3.416,3.416,0,0,0-1,8.239,15.634,15.634,0,0,0,5.313,6.93a17.758,17.758,0,0,0,5.621-4,18.881,18.881,0,0,0,4.158-7.354,34.214,34.214,0,0,0,1.54-10.742ZM48.433.077Q32.8.077,32.8-26.257q0-26.257,15.631-26.257,15.554,0,15.554,26.257Q63.987.077,48.433.077Zm0,.693A20.984,20.984,0,0,0,64.988-6.891q6.622-7.661,6.622-19.366T64.988-45.584a21.027,21.027,0,0,0-16.555-7.623,20.994,20.994,0,0,0-16.594,7.623q-6.583,7.623-6.583,19.327T31.878-6.891A20.984,20.984,0,0,0,48.433.77Zm65.758-15.554q0-9.7-13.783-14.784l-6.545-2.464q-6.16-2.31-8.894-4.889a8.655,8.655,0,0,1-2.733-6.583,8.284,8.284,0,0,1,2.849-6.468q2.849-2.541,8.085-2.541a16.4,16.4,0,0,1,9.51,3.2q4.581,3.2,9.586,11.589l.539-.231-6.391-16.4-.462.154q.308,2.464-2.618,2.464a30.525,30.525,0,0,1-4.427-.731,29.267,29.267,0,0,0-5.737-.732,15.932,15.932,0,0,0-10.664,3.619,11.9,11.9,0,0,0-4.273,9.548q0,9.7,12.782,14.63L97.4-23.023q12.32,4.389,12.32,12.705A9.615,9.615,0,0,1,106.376-3,11.874,11.874,0,0,1,98.021.077a17.406,17.406,0,0,1-4.235-.5A22.322,22.322,0,0,1,88.858-2.5a21.923,21.923,0,0,1-6.083-5.352A55.953,55.953,0,0,1,76.538-17.4L76-17.171,81.928,1,82.39.847a2.036,2.036,0,0,1,.5-1.81,2.784,2.784,0,0,1,2.04-.655,47.481,47.481,0,0,1,5.12,1.194A32.467,32.467,0,0,0,98.1.77a16.893,16.893,0,0,0,11.127-4.158Q114.191-7.546,114.191-14.784ZM158-42.119q0-9.7,6.93-9.7h.077v-.616h-1.694q-.539,0-2.5.116t-3.273.116q-1.309,0-3.234-.116t-2.464-.116h-1.771v.616h.154q6.93,0,6.93,9.7v25.8q0,7.161-4,11.473A13.626,13.626,0,0,1,142.681-.539q-7.238,0-10.434-4.389t-3.2-14.245V-47.509q0-2.618.809-3.465t3.2-.847h.154v-.616h-1.694q-.924,0-2.733.116t-3.042.116q-1.232,0-3.08-.116t-2.695-.116h-1.694v.616h.077q2.464,0,3.272.847t.809,3.465v31.031q0,8.855,4.735,12.975T141.141.616q7.931,0,12.4-4.62T158-16.324ZM213.213,0V-.616a4.846,4.846,0,0,1-3.234-1.039,8.959,8.959,0,0,1-2.233-3.5L188.188-52.437q-.616,0-1.655.039t-1.733.039q-.616,0-1.809-.039t-1.964-.039l2.772,6.7L169.939-10.4A21.268,21.268,0,0,1,165.665-3a8.064,8.064,0,0,1-5.428,2.387V0h1.54q.693,0,2.926-.116t2.926-.116q1.078,0,3.426.116T174.328,0h.924V-.616q-5.621,0-5.621-4.62a14.562,14.562,0,0,1,1.078-4.774l1.771-4.466h24.178l3.773,8.932a8.48,8.48,0,0,1,.616,2.31q0,2.618-3.927,2.618V0h2q.539,0,2.695-.116t3.542-.116q1.155,0,3.234.116t2.7.116ZM184.261-44.814,196.35-15.323H172.788Z" transform="translate(239.767 54.824)" fill="#fff"/>
    <path id="Trazado_3888" data-name="Trazado 3888" d="M40.425-14.784q0-9.7-13.783-14.784L20.1-32.032q-6.16-2.31-8.893-4.889A8.655,8.655,0,0,1,8.47-43.505a8.284,8.284,0,0,1,2.849-6.468q2.849-2.541,8.085-2.541a16.4,16.4,0,0,1,9.51,3.2Q33.5-46.123,38.5-37.73l.539-.231-6.391-16.4-.462.154q.308,2.464-2.618,2.464a30.525,30.525,0,0,1-4.427-.731,29.267,29.267,0,0,0-5.737-.732A15.932,15.932,0,0,0,8.74-49.588,11.9,11.9,0,0,0,4.466-40.04q0,9.7,12.782,14.63l6.391,2.387q12.32,4.389,12.32,12.705A9.615,9.615,0,0,1,32.61-3,11.874,11.874,0,0,1,24.255.077a17.406,17.406,0,0,1-4.235-.5A22.322,22.322,0,0,1,15.092-2.5,21.923,21.923,0,0,1,9.009-7.854,55.953,55.953,0,0,1,2.772-17.4l-.539.231L8.162,1,8.624.847a2.036,2.036,0,0,1,.5-1.81,2.784,2.784,0,0,1,2.041-.655,47.482,47.482,0,0,1,5.12,1.194A32.467,32.467,0,0,0,24.332.77,16.893,16.893,0,0,0,35.459-3.388Q40.425-7.546,40.425-14.784ZM93.4,0V-.616a4.846,4.846,0,0,1-3.234-1.039,8.959,8.959,0,0,1-2.233-3.5L68.376-52.437q-.616,0-1.656.039t-1.732.039q-.616,0-1.81-.039t-1.964-.039l2.772,6.7L50.127-10.4A21.268,21.268,0,0,1,45.853-3,8.064,8.064,0,0,1,40.425-.616V0h1.54q.693,0,2.926-.116t2.926-.116q1.078,0,3.427.116T54.516,0h.924V-.616q-5.621,0-5.621-4.62A14.562,14.562,0,0,1,50.9-10.01l1.771-4.466H76.846l3.773,8.932a8.481,8.481,0,0,1,.616,2.31q0,2.618-3.927,2.618V0h2Q79.849,0,82-.116t3.542-.116q1.155,0,3.234.116T91.476,0ZM64.449-44.814,76.538-15.323H52.976Zm40.964-2.695q0-2.541.847-3.426t3.234-.886h.154v-.616h-1.694q-.924,0-2.733.116t-3.042.116q-1.232,0-3.08-.116T96.4-52.437H94.71v.616h.077q2.387,0,3.234.886t.847,3.426V-4.928q0,2.541-.847,3.427t-3.234.885H94.71V0H96.4q.847,0,2.695-.116t3.08-.116q1.232,0,3.042.116T107.954,0h1.694V-.616h-.154q-2.387,0-3.234-.885t-.847-3.427Zm51.9,40.964V-42.119q0-9.7,6.93-9.7h.154v-.616H162.7q-.539,0-2.5.116t-3.272.116q-1.309,0-3.234-.116t-2.464-.116h-1.771v.616h.154q6.93,0,6.93,9.7V-7.7L125.2-52.437q-.847,0-2.349.039t-2.579.039q-.847,0-2.233-.039t-2.541-.039h-1v.616h.154a5.08,5.08,0,0,1,2.5.577,5.067,5.067,0,0,1,1.5,1.155q.462.578,1.617,2.349v37.422q0,9.7-6.853,9.7h-.154V0h1.694q.539,0,2.5-.116t3.272-.116q1.309,0,3.234.116T126.434,0H128.2V-.616h-.154q-7.007,0-7.007-9.7v-36.5L153.692,0q.77,0,2.117-.039t2.04-.039q.385,0,1.579.039T161.623,0ZM197.043-.616h-.154q-2.387,0-3.2-.847t-.809-3.465V-51.667h6.237a8.31,8.31,0,0,1,3.2.462,7.335,7.335,0,0,1,2.426,2.233q3.08,4,8.547,14.4l.539-.231-5.621-20.02-.462.077q0,2.31-3,2.31H196.5q-.77,0-3.08.039t-3.85.039q-1.694,0-3.927-.039t-3-.039h-8.316q-2.926,0-2.926-2.31l-.539-.077L165.242-34.8l.539.231a109.286,109.286,0,0,1,8.624-14.4,7.335,7.335,0,0,1,2.425-2.233,8.31,8.31,0,0,1,3.2-.462h6.237V-4.928q0,2.618-.809,3.465t-3.273.847H182.1V0H183.8q.847,0,2.695-.116t3.08-.116q1.232,0,3.042.116T195.349,0h1.694Z" transform="translate(-2.233 54.824)" fill="#fff"/>
    <path id="Trazado_3889" data-name="Trazado 3889" d="M-.123-5.1H.448V-8.164L1.862-5.993H1.94L3.368-8.164V-5.1h.558v-4h-.6L1.914-6.9.487-9.1h-.61Zm-2.739,0h.571V-8.554h1.285V-9.1H-4.147v.546h1.285Z" transform="translate(449.483 10.752)" fill="#fff"/>
    <path id="Trazado_3690" data-name="Trazado 3690" d="M-13168.137,4077.941l.939,9.275,1.359-9.275,9.2,5.935-7.291-7.664,10.236-.973-10.236-.94,6.9-6.9-8.814,5.657-1.359-8.976-.939,8.976-7.8-5.657,6.184,6.9-10.885.94,10.885.973-6.184,7.664Z" transform="translate(13454.907 -4046.067)" fill="#fff"/>
  </g>
</svg>
