<svg id="Facebook-f_Logo-Blue-Logo.wine" xmlns="http://www.w3.org/2000/svg" width="19.037" height="19.037" viewBox="0 0 19.037 19.037">
  <path id="Trazado_3894" data-name="Trazado 3894" d="M19.037,9.519a9.519,9.519,0,1,0-11.006,9.4V12.27H5.614V9.519H8.031v-2.1a3.359,3.359,0,0,1,3.6-3.7,14.638,14.638,0,0,1,2.131.186V6.247h-1.2a1.376,1.376,0,0,0-1.551,1.486V9.519h2.64l-.422,2.751H11.006v6.651a9.521,9.521,0,0,0,8.031-9.4" fill="#1877f2"/>
  <path id="Trazado_3895" data-name="Trazado 3895" d="M410.276,275.219l.422-2.751h-2.64v-1.786a1.376,1.376,0,0,1,1.551-1.486h1.2v-2.342a14.637,14.637,0,0,0-2.131-.186,3.359,3.359,0,0,0-3.6,3.7v2.1h-2.417v2.751h2.417v6.651a9.623,9.623,0,0,0,2.975,0v-6.651h2.218" transform="translate(-397.053 -262.949)" fill="#fff"/>
</svg>
