<svg class="mobile" xmlns="http://www.w3.org/2000/svg" width="258.801" height="210.344" viewBox="0 0 258.801 210.344">
  <g id="Grupo_6920" data-name="Grupo 6920" transform="translate(-61 -381)">
    <text id="Designed_for_him" data-name="Designed
for him" transform="translate(195 463)" fill="#fff" font-size="54" font-family="Inter-Bold, Inter" font-weight="700" letter-spacing="-0.01em"><tspan x="-123.57" y="0">Designed</tspan><tspan x="-90.962" y="60">for him</tspan></text>
    <text id="MÁS_DE_120_MARCAS" data-name="MÁS DE 120 MARCAS" transform="translate(195 395)" fill="#fff" font-size="14" font-family="Inter-Medium, Inter" font-weight="500" letter-spacing="0.12em"><tspan x="-86.224" y="0">MÁS DE 120 MARCAS</tspan></text>
    <g id="Grupo_5910" data-name="Grupo 5910" transform="translate(58 555.65)">
      <g id="Grupo_5909" data-name="Grupo 5909" transform="translate(6 3.103)">
        <text id="_HASTA_" data-name=" HASTA " transform="translate(5 32.59) rotate(-90)" fill="#fff" font-size="7" font-family="SegoeUI, Segoe UI" letter-spacing="0.18em"><tspan x="0" y="0" xml:space="preserve"> HASTA </tspan></text>
        <path id="Trazado_23" data-name="Trazado 23" d="M13.041-116.48l7.413-8.688v8.688Zm7.413,11h5.858V-111.5h3.746v-4.982H26.313v-17.1H21.132l-15.3,17.735,1,4.344H20.455Zm25.068-5.061c-3.706,0-6.137-3.786-6.137-8.887v-.08c0-5.1,2.391-8.808,6.058-8.808s6.137,3.826,6.137,8.887v.08C51.58-114.248,49.229-110.542,45.522-110.542Zm-.08,5.54c7.453,0,12.434-6.337,12.434-14.427v-.08c0-8.13-4.982-14.347-12.355-14.347-7.453,0-12.434,6.337-12.434,14.427v.08C33.088-111.219,37.95-105,45.442-105Z" transform="translate(5.657 133.856)" fill="#fff"/>
        <path id="Trazado_25" data-name="Trazado 25" d="M6.6-29.431a2.254,2.254,0,0,1-2.247-2.332v-.021a2.219,2.219,0,0,1,2.226-2.311,2.254,2.254,0,0,1,2.247,2.332v.021A2.219,2.219,0,0,1,6.6-29.431Zm-.021,1.505a3.837,3.837,0,0,0,3.954-3.837v-.021A3.8,3.8,0,0,0,6.6-35.6,3.837,3.837,0,0,0,2.65-31.763v.021A3.8,3.8,0,0,0,6.582-27.926Zm5.1-.127h1.632v-2.872h3.54V-32.41h-3.54v-1.579H17.33v-1.484H11.681Zm6.646,0h1.632v-2.872H23.5V-32.41h-3.54v-1.579h4.017v-1.484H18.326Z" transform="translate(64.338 56.429)" fill="#fff"/>
        <path id="Trazado_26" data-name="Trazado 26" d="M21.377-71.366c-1.051,0-1.735-1.078-1.735-2.313v-.053c0-1.235.551-2.261,1.682-2.261,1.051,0,1.735,1.078,1.735,2.313v.053C23.06-72.444,22.508-71.366,21.377-71.366Zm-11.3-9.411c-1.051,0-1.735-1.078-1.735-2.313v-.053c0-1.235.551-2.261,1.682-2.261,1.051,0,1.735,1.078,1.735,2.313v.053C11.757-81.854,11.205-80.777,10.075-80.777Zm11.251,11.8A4.493,4.493,0,0,0,25.82-73.68v-.053a4.422,4.422,0,0,0-4.442-4.652,4.493,4.493,0,0,0-4.494,4.706v.053A4.422,4.422,0,0,0,21.326-68.974ZM7.42-69.184h3.128l13.432-18.4H20.852Zm2.6-9.2a4.493,4.493,0,0,0,4.494-4.706v-.053A4.423,4.423,0,0,0,10.074-87.8,4.493,4.493,0,0,0,5.58-83.09v.053A4.423,4.423,0,0,0,10.022-78.385Z" transform="translate(62.029 88.233)" fill="#fff"/>
      </g>
      <g id="Grupo_5908" data-name="Grupo 5908" transform="translate(126.26 0)">
        <path id="Trazado_27" data-name="Trazado 27" d="M10.649-105.19h6.058v-28.1H12.523L4.512-130.9l1.275,5.022,4.862-1.2Zm21.162-4.664c-3.03,0-4.822-1.553-4.822-3.466v-.08c0-2.192,1.993-3.427,4.822-3.427s4.822,1.235,4.822,3.427v.08C36.634-111.368,34.841-109.854,31.812-109.854Zm0-11.836c-2.431,0-3.985-1.475-3.985-3.427v-.08c0-1.714,1.435-3.228,3.985-3.228s3.985,1.554,3.985,3.268v.08c0,1.954-1.554,3.388-3.985,3.388Zm0,16.9c6.177,0,10.76-3.029,10.76-8.21v-.08c0-3.307-1.675-5.1-4.5-6.576a6.525,6.525,0,0,0,3.547-6.1v-.08c0-4.3-3.906-7.653-9.8-7.653s-9.8,3.388-9.8,7.653v.08a6.526,6.526,0,0,0,3.547,6.1c-2.989,1.395-4.5,3.348-4.5,6.735v.08c0,4.863,4.583,8.051,10.76,8.051Z" transform="translate(9.982 137.13)" fill="#fff"/>
        <text id="CUOTAS" transform="translate(58.54 14)" fill="#fff" font-size="15" font-family="SegoeUI, Segoe UI" letter-spacing="0.1em"><tspan x="0" y="0">CUOTAS</tspan></text>
        <text id="SIN_INTERÉS" data-name="SIN INTERÉS" transform="translate(58.54 30.998)" fill="#fff" font-size="13" font-family="SegoeUI-Bold, Segoe UI" font-weight="700"><tspan x="0" y="0">SIN INTERÉS</tspan></text>
        <text id="_HASTA_2" data-name=" HASTA " transform="translate(5.739 35.693) rotate(-90)" fill="#fff" font-size="7" font-family="SegoeUI, Segoe UI" letter-spacing="0.18em"><tspan x="0" y="0" xml:space="preserve"> HASTA </tspan></text>
      </g>
      <path id="Trazado_2604" data-name="Trazado 2604" d="M-4.743-10.5v-10.87h1.468V-10.5Zm-4.705-4.705v-1.46H1.431v1.46Z" transform="translate(113.65 34.038)" fill="#fff"/>
    </g>
  </g>
</svg>
