<svg class="desktop" xmlns="http://www.w3.org/2000/svg" width="736" height="199.5" viewBox="0 0 736 199.5">
  <g id="Grupo_5915" data-name="Grupo 5915" transform="translate(-592 -446)">
    <text id="Designed_for_him" data-name="Designed for him" transform="translate(960 552)" fill="#fff" font-size="90" font-family="Inter-Bold, Inter" font-weight="700" letter-spacing="-0.01em"><tspan x="-367.089" y="0">Designed for him</tspan></text>
    <text id="MÁS_DE_120_MARCAS" data-name="MÁS DE 120 MARCAS" transform="translate(960 465)" fill="#fff" font-size="20" font-family="Inter-Medium, Inter" font-weight="500" letter-spacing="0.12em"><tspan x="-123.177" y="0">MÁS DE 120 MARCAS</tspan></text>
    <g id="Grupo_5910" data-name="Grupo 5910" transform="translate(-25 147.5)">
      <g id="Grupo_5909" data-name="Grupo 5909" transform="translate(0 -0.684)">
        <text id="_HASTA_" data-name=" HASTA " transform="translate(760 468.684) rotate(-90)" fill="#fff" font-size="10" font-family="SegoeUI, Segoe UI" letter-spacing="0.335em"><tspan x="-27.723" y="0" xml:space="preserve"> HASTA </tspan></text>
        <path id="Trazado_23" data-name="Trazado 23" d="M18.358-103.674l12.876-15.091v15.091ZM31.234-84.567H41.41V-95.02h6.507v-8.653H41.41v-29.7h-9L5.828-102.566,7.559-95.02H31.235Zm43.543-8.792c-6.438,0-10.661-6.576-10.661-15.437v-.138c0-8.861,4.154-15.3,10.522-15.3S85.3-117.588,85.3-108.8v.138C85.3-99.8,81.215-93.359,74.777-93.359Zm-.138,9.622c12.945,0,21.6-11.007,21.6-25.06v-.138c0-14.122-8.653-24.921-21.46-24.921-12.945,0-21.6,11.007-21.6,25.06v.138C53.178-94.536,61.624-83.736,74.638-83.736Z" transform="translate(764.121 576.93)" fill="#fff"/>
        <path id="Trazado_25" data-name="Trazado 25" d="M9.517-24.885a3.915,3.915,0,0,1-3.9-4.05v-.037a3.854,3.854,0,0,1,3.866-4.014,3.915,3.915,0,0,1,3.9,4.05v.037A3.854,3.854,0,0,1,9.517-24.885ZM9.481-22.27a6.664,6.664,0,0,0,6.867-6.665v-.037A6.6,6.6,0,0,0,9.517-35.6,6.664,6.664,0,0,0,2.65-28.935v.037A6.6,6.6,0,0,0,9.481-22.27Zm8.856-.221h2.835v-4.989h6.149v-2.578H21.172V-32.8h6.978v-2.578H18.336Zm11.544,0h2.835v-4.989h6.149v-2.578H32.715V-32.8h6.978v-2.578H29.88Z" transform="translate(863.708 514.854)" fill="#fff"/>
        <path id="Trazado_26" data-name="Trazado 26" d="M33.02-59.257c-1.826,0-3.014-1.872-3.014-4.018v-.091c0-2.146.957-3.927,2.922-3.927,1.826,0,3.014,1.872,3.014,4.018v.091C35.944-61.129,34.985-59.257,33.02-59.257ZM13.388-75.6c-1.826,0-3.014-1.872-3.014-4.018v-.091c0-2.146.957-3.927,2.922-3.927,1.826,0,3.014,1.872,3.014,4.018v.091C16.31-77.475,15.351-75.6,13.388-75.6ZM32.93-55.1c4.612,0,7.806-3.653,7.806-8.175v-.091c0-4.472-3.1-8.08-7.716-8.08s-7.806,3.653-7.806,8.175v.091C25.214-58.708,28.318-55.1,32.93-55.1ZM8.776-55.468H14.21L37.542-87.429H32.108ZM13.3-71.448c4.612,0,7.806-3.653,7.806-8.175v-.091c0-4.475-3.1-8.082-7.716-8.082S5.58-84.143,5.58-79.621v.091C5.58-75.057,8.685-71.448,13.3-71.448Z" transform="translate(861.856 531.629)" fill="#fff"/>
      </g>
      <g id="Grupo_5908" data-name="Grupo 5908" transform="translate(50 0.5)">
        <text id="_HASTA_2" data-name=" HASTA " transform="translate(938 468.684) rotate(-90)" fill="#fff" font-size="10" font-family="SegoeUI, Segoe UI" letter-spacing="0.335em"><tspan x="-27.723" y="0" xml:space="preserve"> HASTA </tspan></text>
        <path id="Trazado_27" data-name="Trazado 27" d="M15.173-84.335H25.7v-48.8H18.426L4.512-128.985l2.215,8.722,8.446-2.077Zm36.759-8.1c-5.263,0-8.376-2.7-8.376-6.021V-98.6c0-3.807,3.461-5.953,8.376-5.953s8.376,2.146,8.376,5.953v.138C60.308-95.065,57.193-92.436,51.932-92.436Zm0-20.56c-4.223,0-6.923-2.561-6.923-5.953v-.138c0-2.977,2.492-5.607,6.923-5.607s6.923,2.7,6.923,5.677v.138c0,3.394-2.7,5.886-6.923,5.886Zm0,29.352c10.73,0,18.691-5.261,18.691-14.261v-.138c0-5.744-2.909-8.861-7.823-11.422,3.807-2.283,6.161-5.33,6.161-10.592v-.138c0-7.475-6.784-13.293-17.03-13.293S34.9-127.6,34.9-120.2v.138c0,5.261,2.354,8.307,6.161,10.592-5.192,2.423-7.823,5.815-7.823,11.7v.138c0,8.447,7.961,13.985,18.691,13.985Z" transform="translate(939.979 576.314)" fill="#fff"/>
        <text id="CUOTAS" transform="translate(1021 463.5)" fill="#fff" font-size="28" font-family="SegoeUI, Segoe UI" letter-spacing="0.1em"><tspan x="0" y="0">CUOTAS</tspan></text>
        <text id="SIN_INTERÉS" data-name="SIN INTERÉS" transform="translate(1021 491.5)" fill="#fff" font-size="23" font-family="SegoeUI-Bold, Segoe UI" font-weight="700"><tspan x="0" y="0">SIN INTERÉS</tspan></text>
      </g>
      <path id="Trazado_2604" data-name="Trazado 2604" d="M-1.275-2.491V-21.373h2.55V-2.491Zm-8.173-8.173V-13.2h18.9v2.536Z" transform="translate(940.447 480.373)" fill="#fff"/>
    </g>
  </g>
</svg>
