<svg xmlns="http://www.w3.org/2000/svg" width="23.734" height="21.417" viewBox="0 0 23.734 21.417">
  <path id="Trazado_3872" data-name="Trazado 3872" d="M120.1,83.742h0a.5.5,0,0,1-.359-.153L110.5,73.98a6.3,6.3,0,0,1,9.068-8.734l.545.566.545-.566a6.3,6.3,0,0,1,9.068,8.734l-9.27,9.609a.5.5,0,0,1-.359.152Zm-5.067-19.42a5.3,5.3,0,0,0-3.812,8.967l8.88,9.237,8.911-9.237a5.3,5.3,0,0,0-7.633-7.351l-.9.938a.513.513,0,0,1-.718,0l-.9-.938a5.26,5.26,0,0,0-3.717-1.615h-.1Zm-4.018,1.117h0Z" transform="translate(-108.245 -62.825)" stroke="#000" stroke-width="1"/>
</svg>
