<svg xmlns="http://www.w3.org/2000/svg" width="384.485" height="23.963" viewBox="0 0 384.485 23.963"><path d="M19.716-9.424H11.191l5.363-8.649ZM23.188,0H30.5L21.731-23.064H12.648L-1.922,0H5.363l2.6-4.216H21.638ZM34.6,0h8.122L52.793-16.678H45.849L39.37-5.394,35.743-16.678H28.706ZM64.108-13.268c3.472,0,4.96.992,5.177,2.821H58.342c.713-1.767,2.294-2.821,5.735-2.821ZM68.665-5.89c-.279.527-1.147,2.139-5.549,2.139h-.031c-3.689,0-5.208-1.3-5.332-3.255H75.578a14.677,14.677,0,0,0,.217-2.511c0-3.72-2.077-7.626-10.509-7.626H63.457c-8.649,0-11.47,3.875-12.121,8.029a12.239,12.239,0,0,0-.124,1.8c0,4.278,2.7,7.781,10.881,7.781h1.674c9.858,0,11.253-4.092,11.625-6.355Zm18.2-17.174H80.1L76.446,0H83.2Zm9.579,0H89.683L86.025,0h6.758ZM104.9-3.441c-2.232,0-2.821-.868-2.821-1.705,0-.992.558-1.426,2.6-1.767l6.6-1.023-.093.527C110.732-5.146,108.407-3.441,104.9-3.441ZM103.168.31c4.433,0,6.7-1.705,7.409-2.6A2.2,2.2,0,0,0,112.84,0h5.425l.744-4.526h-.837c-.744,0-.9-.372-.806-.837l.93-5.8c.4-2.728-.217-5.983-9.579-5.983H107.26c-9.207,0-10.013,3.627-10.261,5.7h6.2c.155-.558.4-1.86,4.526-1.86h.093c3.844,0,4.092.713,4.092,1.364,0,.527-.279.837-1.116.93l-7.5.651c-2.635.217-4.309.62-5.518,1.4A4.887,4.887,0,0,0,95.6-4.588c0,2.635,1.86,4.9,7.192,4.9ZM119.846,0H126.6l1.271-8.029a5.031,5.031,0,0,1,5.394-4.371c3.1,0,4.03,1.767,3.689,4.154L135.656,0h6.789l1.55-9.765c.589-3.472-1.395-7.285-7.254-7.285h-.217a10.785,10.785,0,0,0-7.812,3.224l.465-2.852h-6.7Zm38.781-13.268c3.472,0,4.96.992,5.177,2.821H152.861c.713-1.767,2.294-2.821,5.735-2.821Zm4.557,7.378c-.279.527-1.147,2.139-5.549,2.139H157.6c-3.689,0-5.208-1.3-5.332-3.255H170.1a14.677,14.677,0,0,0,.217-2.511c0-3.72-2.077-7.626-10.509-7.626h-1.829c-8.649,0-11.47,3.875-12.121,8.029a12.239,12.239,0,0,0-.124,1.8c0,4.278,2.7,7.781,10.881,7.781h1.674c9.858,0,11.253-4.092,11.625-6.355Zm26.97-1.86C189.751-6.107,187.55-4,183.52-4h-.155c-3.565,0-4.9-1.86-4.9-3.937,0-2.325,1.426-4.774,6.014-4.774h.155c3.782,0,5.642,1.86,5.642,3.968A3.483,3.483,0,0,1,190.154-7.75ZM192.6-23.064l-1.364,8.711c-.589-.589-2.945-2.728-8.308-2.728h-.465c-7.285,0-10.23,3.72-10.819,7.9a14.239,14.239,0,0,0-.124,1.922c0,4.464,3.131,7.657,9.548,7.657h.4c5.053,0,7.44-2.325,7.936-2.976L189.007,0h6.7l3.658-23.064ZM207.855-3.441c-2.232,0-2.821-.868-2.821-1.705,0-.992.558-1.426,2.6-1.767l6.6-1.023-.093.527C213.683-5.146,211.358-3.441,207.855-3.441ZM206.119.31c4.433,0,6.7-1.705,7.409-2.6A2.2,2.2,0,0,0,215.791,0h5.425l.744-4.526h-.837c-.744,0-.9-.372-.806-.837l.93-5.8c.4-2.728-.217-5.983-9.579-5.983h-1.457c-9.207,0-10.013,3.627-10.261,5.7h6.2c.155-.558.4-1.86,4.526-1.86h.093c3.844,0,4.092.713,4.092,1.364,0,.527-.279.837-1.116.93l-7.5.651c-2.635.217-4.309.62-5.518,1.4a4.887,4.887,0,0,0-2.17,4.371c0,2.635,1.86,4.9,7.192,4.9ZM238.483.4c6.479,0,9.672-2.852,10.664-4.061A18.891,18.891,0,0,1,249.426,0h4.216l2.046-12.927H239.909l-.682,4.371h8.866c-.155.837-2.635,3.348-9.021,3.348-5.673,0-7.781-2.6-7.781-5.611a5.3,5.3,0,0,1,.093-1.209c.4-2.976,2.573-5.952,9.362-5.952,6.944,0,7.409,2.7,7.5,3.286h7.44c.124-3.131-1.643-8.773-14.291-8.773h-.961c-12.865,0-15.81,6.479-16.43,10.974a14.235,14.235,0,0,0-.155,2.232C223.851-5.58,226.889.4,237.863.4ZM270.351.5c9.92,0,11.749-4.712,12.245-8.525a14.248,14.248,0,0,0,.093-1.55c0-3.782-2.263-7.564-11.16-7.564h-2.108c-9.424,0-11.78,4.371-12.276,8.339a8.5,8.5,0,0,0-.093,1.519c0,3.658,2.48,7.781,11.191,7.781Zm-.93-4.526c-4.154,0-5.456-1.984-5.456-3.813,0-2.387,1.209-4.867,6.324-4.867h.031c4.216,0,5.487,1.829,5.487,3.689C275.807-6.448,274.381-4.03,269.421-4.03Zm21.7-1.395H283.8L282.937,0h7.316ZM304.978.465c10.416,0,11.625-5.084,12-7.5h-6.913c-.248.744-1.24,3.069-5.673,3.069h-.124c-3.5,0-4.743-1.767-4.743-3.844,0-2.108,1.209-4.96,5.8-4.96h.093c4.681,0,4.991,2.356,5.084,3.007h6.913c.248-2.635-.744-7.378-10.912-7.378h-1.736c-8.99,0-11.532,4.4-12.028,8a14,14,0,0,0-.124,1.86c0,4.03,2.542,7.75,10.7,7.75ZM331.638.5c9.92,0,11.749-4.712,12.245-8.525a14.248,14.248,0,0,0,.093-1.55c0-3.782-2.263-7.564-11.16-7.564h-2.108c-9.424,0-11.78,4.371-12.276,8.339a8.5,8.5,0,0,0-.093,1.519c0,3.658,2.48,7.781,11.191,7.781Zm-.93-4.526c-4.154,0-5.456-1.984-5.456-3.813,0-2.387,1.209-4.867,6.324-4.867h.031c4.216,0,5.487,1.829,5.487,3.689C337.094-6.448,335.668-4.03,330.708-4.03ZM351.385,0l1.3-8.277a4.611,4.611,0,0,1,4.867-4.123c2.759,0,3.565,1.953,3.224,3.937L359.445,0h6.789l1.3-8.215a4.564,4.564,0,0,1,4.836-4.185c2.821,0,3.565,2.046,3.224,4L374.263,0h6.789l1.581-9.982c.5-2.945-1.116-7.068-7.285-7.068h-.217a11.287,11.287,0,0,0-7.9,3.286c-.9-1.86-2.852-3.286-6.231-3.286h-.186a9.84,9.84,0,0,0-7.316,3.224l.465-2.852h-6.7L344.627,0Z" transform="translate(1.921 23.467)" fill="#0a0a0a"/></svg>