<svg xmlns="http://www.w3.org/2000/svg" width="15.693" height="15.92" viewBox="0 0 15.693 15.92">
  <path id="Trazado_3868" data-name="Trazado 3868" d="M244.933,171.28l-3.1-3.1a6.431,6.431,0,1,0-5.211,2.666,6.57,6.57,0,0,0,3.474-1.01l3.141,3.141a1.172,1.172,0,0,0,1.7,0,1.247,1.247,0,0,0,0-1.7Zm-11.18-4.03a4.023,4.023,0,0,1,0-5.7,4.067,4.067,0,0,1,2.868-1.171,4.14,4.14,0,0,1,2.868,1.171,4.1,4.1,0,0,1,0,5.736,4.11,4.11,0,0,1-5.736-.041Z" transform="translate(-229.908 -157.67)" stroke="#fff" stroke-width="0.5"/>
</svg>
