<svg xmlns="http://www.w3.org/2000/svg" width="16.25" height="16.25" viewBox="0 0 16.25 16.25">
  <path id="Icon_awesome-whatsapp" data-name="Icon awesome-whatsapp" d="M13.816,4.611A8.055,8.055,0,0,0,1.143,14.329L0,18.5l4.269-1.121a8.028,8.028,0,0,0,3.848.979h0a8.13,8.13,0,0,0,8.129-8.052,8.084,8.084,0,0,0-2.434-5.695ZM8.121,17a6.681,6.681,0,0,1-3.41-.932l-.243-.145-2.532.664.675-2.47-.16-.254A6.706,6.706,0,1,1,14.89,10.306,6.768,6.768,0,0,1,8.121,17Zm3.671-5.013c-.2-.1-1.19-.588-1.375-.653s-.319-.1-.453.1-.519.653-.638.791-.236.152-.435.051A5.477,5.477,0,0,1,6.152,9.885c-.207-.355.207-.33.591-1.1a.373.373,0,0,0-.018-.352c-.051-.1-.453-1.092-.62-1.494S5.775,6.6,5.651,6.6s-.25-.007-.384-.007a.745.745,0,0,0-.537.25,2.261,2.261,0,0,0-.7,1.679,3.942,3.942,0,0,0,.82,2.082,8.991,8.991,0,0,0,3.439,3.04,3.937,3.937,0,0,0,2.416.5,2.061,2.061,0,0,0,1.357-.958,1.683,1.683,0,0,0,.116-.958C12.126,12.138,11.992,12.087,11.792,11.989Z" transform="translate(0 -2.25)" fill="currentColor"/>
</svg>
